FILE "World Heroes 2 (1995)(ADK - SNK)(en-ja).img" BINARY
  TRACK 01 MODE1/2352
    INDEX 01 00:00:00
  TRACK 02 AUDIO
    PREGAP 00:02:00
    INDEX 01 01:52:34
  TRACK 03 AUDIO
    INDEX 00 02:30:27
    INDEX 01 02:32:27
  TRACK 04 AUDIO
    INDEX 00 04:39:24
    INDEX 01 04:41:24
  TRACK 05 AUDIO
    INDEX 00 06:48:20
    INDEX 01 06:50:20
  TRACK 06 AUDIO
    INDEX 00 09:01:25
    INDEX 01 09:03:25
  TRACK 07 AUDIO
    INDEX 00 11:15:39
    INDEX 01 11:17:39
  TRACK 08 AUDIO
    INDEX 00 13:25:06
    INDEX 01 13:27:06
  TRACK 09 AUDIO
    INDEX 00 15:33:71
    INDEX 01 15:35:71
  TRACK 10 AUDIO
    INDEX 00 17:41:28
    INDEX 01 17:43:28
  TRACK 11 AUDIO
    INDEX 00 19:48:24
    INDEX 01 19:50:24
  TRACK 12 AUDIO
    INDEX 00 21:55:42
    INDEX 01 21:57:42
  TRACK 13 AUDIO
    INDEX 00 24:19:40
    INDEX 01 24:21:40
  TRACK 14 AUDIO
    INDEX 00 25:17:57
    INDEX 01 25:19:57
  TRACK 15 AUDIO
    INDEX 00 26:06:19
    INDEX 01 26:08:19
  TRACK 16 AUDIO
    INDEX 00 26:24:36
    INDEX 01 26:26:36
  TRACK 17 AUDIO
    INDEX 00 26:48:21
    INDEX 01 26:50:21
  TRACK 18 AUDIO
    INDEX 00 27:07:63
    INDEX 01 27:09:63
  TRACK 19 AUDIO
    INDEX 00 27:53:32
    INDEX 01 27:55:32
  TRACK 20 AUDIO
    INDEX 00 30:09:36
    INDEX 01 30:11:36
  TRACK 21 AUDIO
    INDEX 00 32:18:54
    INDEX 01 32:20:54
  TRACK 22 AUDIO
    INDEX 00 34:38:28
    INDEX 01 34:40:28
  TRACK 23 AUDIO
    INDEX 00 36:47:39
    INDEX 01 36:49:39
  TRACK 24 AUDIO
    INDEX 00 39:00:05
    INDEX 01 39:02:05
  TRACK 25 AUDIO
    INDEX 00 41:11:60
    INDEX 01 41:13:60
  TRACK 26 AUDIO
    INDEX 00 43:24:36
    INDEX 01 43:26:36
  TRACK 27 AUDIO
    INDEX 00 45:37:06
    INDEX 01 45:39:06
  TRACK 28 AUDIO
    INDEX 00 47:59:69
    INDEX 01 48:01:69
  TRACK 29 AUDIO
    INDEX 00 50:13:48
    INDEX 01 50:15:48
  TRACK 30 AUDIO
    INDEX 00 53:02:74
    INDEX 01 53:04:74
  TRACK 31 AUDIO
    INDEX 00 54:10:26
    INDEX 01 54:12:26
  TRACK 32 AUDIO
    INDEX 00 54:59:21
    INDEX 01 55:01:21
  TRACK 33 AUDIO
    INDEX 00 56:06:01
    INDEX 01 56:08:01
  TRACK 34 AUDIO
    INDEX 00 56:43:17
    INDEX 01 56:45:17
  TRACK 35 AUDIO
    INDEX 00 57:52:38
    INDEX 01 57:54:38
  TRACK 36 AUDIO
    INDEX 00 58:31:71
    INDEX 01 58:33:71
  TRACK 37 AUDIO
    INDEX 00 59:19:01
    INDEX 01 59:21:01
  TRACK 38 AUDIO
    INDEX 00 59:57:18
    INDEX 01 59:59:18
  TRACK 39 AUDIO
    INDEX 00 60:16:35
    INDEX 01 60:18:35
  TRACK 40 AUDIO
    INDEX 00 60:54:22
    INDEX 01 60:56:22
  TRACK 41 AUDIO
    INDEX 00 61:41:07
    INDEX 01 61:43:07
  TRACK 42 AUDIO
    INDEX 00 62:47:18
    INDEX 01 62:49:18
  TRACK 43 AUDIO
    INDEX 00 63:44:60
    INDEX 01 63:46:60
  TRACK 44 AUDIO
    INDEX 00 64:03:27
    INDEX 01 64:05:27
  TRACK 45 AUDIO
    INDEX 00 65:12:63
    INDEX 01 65:14:63
  TRACK 46 AUDIO
    INDEX 00 66:04:39
    INDEX 01 66:06:39
  TRACK 47 AUDIO
    INDEX 00 66:57:03
    INDEX 01 66:59:03
